<?xml version="1.0" encoding="utf-8"?>
<!-- Generator: Adobe Illustrator 27.9.0, SVG Export Plug-In . SVG Version: 6.00 Build 0)  -->
<svg version="1.1" id="Layer_1" xmlns="http://www.w3.org/2000/svg" xmlns:xlink="http://www.w3.org/1999/xlink" x="0px" y="0px"
	 viewBox="0 0 308.2 271" style="enable-background:new 0 0 308.2 271;" xml:space="preserve">
<g>
	<path d="M54.4,25.4c-5.6,0.1-10.7,0.7-12.1,7.3l0,0.3c-0.1,3.5,0,38.8,0,40.3l0,1.6l7,0l0-1.6c0.4-21.2,11.1-39.2,26.6-44.7
		l-0.5-3.1L54.4,25.4z"/>
	<path d="M118.5,116.4c20.2-9,28.6-34,28.5-46.3c-0.1-15.9-8.5-33-21.8-44.5l-0.5-0.4l-27.5,0.2l-0.6,3.1
		c16.3,6.1,22.2,27.4,22.4,45.2c0.1,21.4-12.4,34.2-33.5,34.4l-8.9,0.1l0.2,16l17-0.3c14.9-0.1,23.6,3.9,28.9,13.2
		c5.2,9.2,7.5,24,7.6,49.7c0.2,22.4-6.8,42.9-19.1,56.4l-2.5,2.7l28.3,0l0.5-0.7c12-16.8,18.5-39.5,18.3-64
		c-0.1-14.7-3.5-28.9-9.5-40C139.9,129,130.3,120.6,118.5,116.4z"/>
	<g>
		<path d="M214.4,147.2c-14.9,0.1-23.6-3.9-28.9-13.2c-5.2-9.2-7.5-24-7.6-49.7c-0.2-22.4,6.8-42.9,19.1-56.4l2.5-2.7l-28.3,0
			l-0.5,0.7c-12,16.8-18.5,39.5-18.3,64c0.1,14.7,3.5,28.9,9.5,40c6.5,12,16.1,20.5,27.9,24.6c-20.2,9-28.5,34-28.5,46.3
			c0.1,15.9,8.5,33,21.8,44.5l0.5,0.4l27.5-0.2l0.6-3.1c-16.3-6.1-22.2-27.4-22.4-45.2c-0.1-21.4,12.4-34.2,33.5-34.4l8.9-0.1
			l-0.2-16L214.4,147.2z"/>
		<path d="M266,197.8l0-1.6l-7,0l0,1.6c-0.4,21.2-11.1,39.2-26.6,44.7l0.5,3.1l20.9,0c5.6-0.1,10.7-0.7,12.1-7.3l0-0.3
			C266.1,234.5,266,199.3,266,197.8z"/>
	</g>
</g>
</svg>
