<svg enable-background="new 0 0 260 150" viewBox="0 0 260 150" xmlns="http://www.w3.org/2000/svg"><path d="m169 2.3c-3.4.7-6.8 1.5-10.1 2.4h-.1c-.7.2-1.2.3-1.9.5-.2.1-.4.1-.6.2-.1 0-.2 0-.3.1-1.1.3-1.7.5-2.4.7s-3.2-.6-3.2-.6l-1.1 1.8h-.1c-1.1.3-2.2.7-3.3 1l-.2.1-3.7.7-2.3 1.3c-1.1.4-2.3.8-3.4 1.2-.4.1-.9.3-1.3.5-.2.1-.4.1-.6.2-.6.2-1.1.4-1.4.5-.1 0-.1.1-.2.1s-4.6 1-5.5 1.4-2.2 1-3.1 1.3-1.7 1.4-1.7 1.4h-.1c-1.2.5-2.4 1.1-3.6 1.6l-.2.1s0 0-.1 0c-2.5 1.1-5 2.3-7.5 3.5-.4-.2-.6-.3-.6-.3s-3.1 1-6.1 3c-.9.6-2.1 1.5-3.3 2.3-2.2 1.2-4.4 2.4-6.6 3.6l-.7-.3s-.9.5-2 1.1-3.8 2.8-5.3 3.1c-.7.1-1.8.7-2.8 1.4l4.4-5.2c-4.6 2.3-8.8 6.5-11.2 9.2-.7.5-1.6.9-2.7 1.4-3.6 1.4.5.6-1.9 1.1s-1.1 1.8-2.2 3.2c-1.1.8-2.2 1.5-3.3 2.2-1.4.9-4.3 1.2-4.3 1.2l-.2.9s-2.8 3-3.6 3.6c-.2.1-.4.3-.6.4-2.2 1.6-4.3 3.2-6.3 4.8-.8.6-1.4 1.1-2.1 1.6-.3.2-.6.4-.8.7-.1 0-.1.1-.2.1-.1.1-.1.1-.2.2 0 0-.1.1-.1.1-.1.1-.3.2-.4.4-1.1.9-2.1 1.7-3.2 2.5-.6.5-3.9 1.2-4.8 3 0 0-3.7 4.3-4.8 5.2s-6 3.4-6 3.4l1.8.3c-2.1 1.9-4 3.7-5.7 5.3-5.6 5.4-8.6 8.7-8.6 8.7l3-1.5 1.6-2c.4-.3.7-.5 1.1-.8.1 0 2.3-1.3 2.5-1.9 2.8-2 5.5-4.1 8.4-6.1l1.2-.3-.4 1.6 2.4-3.2 2.4-2c2.6-1.8 5.3-3.6 8-5.4l1.4.2 1.8-2.3c3.7-2.4 7.4-4.8 11.2-7.2l.9.2 7-3.2s1-1.4 1.5-2.7c8.7-5.3 17.3-10.3 25.6-15l1.8 2.8 1.4-3.8c1.9-1.1 4.7-2.8 4.7-2.8l7.4-3.7 21.1-7.8-13.8 3c3.7-2 7.3-3.8 10.8-5.6 1.2-.1 3-.4 3-.4l5.2-2.5 4.9-3.7c2.1-1 4.2-2 6.1-3l3.7-1.4s.4-.3.9-.8c6.9-3.3 11.9-5.5 14.3-6.6z"/><path d="m241 0c-2.5.8-5 1.6-7.5 2.4l-.2.1s-.1 0-.2.1c-3.5 1.2-7 2.4-10.4 3.6-.2.1-.3.1-.4.1-.2.1-.5.2-.9.3-.9.3-1.8.6-2.7 1-.5.2-.9.3-.9.3l-5.1.8-7.8 4.1-8.3 2.2-.2 1.2s-.2.1-.4.2c-1.6.7-3.2 1.3-4.7 2-.1 0-.2.1-.3.1-.7.3-2.3 1-2.3 1s-5.6-.7-5.2.5c.4 1.1-4.3 3.8-5.6 4.4-1 .4-.9.4-1.3.6-.1 0-.2.1-.3.1s-.2.1-.4.2c-1.2.6-1 .5-2.1 1-.7.3-1.7.8-2.7 1.3-.3.1-.6.3-.9.4s-.6.3-.8.4c-1.5.7-2.3 1.1-3.1 1.5s-2.2 1.1-4.3.3c-2.1-.7-1.6.9-1.9 1.1-.2.1-.1.9-.1 1.7-1.6.8-3.1 1.6-4.7 2.4-1.5.8-4.3 1.2-4.9 1.6-.6.3-1.8 1.1-3.5 2.1-1.6 1-2.2.7-3.3 2s-1.7 1.2-3.1 2.3c-.3.2-.6.3-.9.5-1.2.5-2.5.5-2.5.5l-1.4 1.7c-4.7 2.7-9.3 5.4-13.8 8.1l.4-2.1s-2.5 2.6-4 4.3c-3.1 1.9-6.2 3.9-9.2 5.8l-.6-1.5-18.2 14 9.5-10.6-17.4 13.9s.1 1.2-.1 2.5c-3.9 2.9-7.7 5.7-11.3 8.5-1.5.8-3.1 1.5-4.5 1.9-3.3 1-8.3 3.8-9.2 4.8-1 1 .9 3.4.6 3.7s0 0-.1 0c-.1.1-.3.3-.6.5-1 .8-1.9 1.6-2.8 2.4-1.4 1.2-2 1.7-2.8 2.4-.1.1-.2.2-.3.3s-.3.2-.4.4c-1.3 1.1-4.7 2.3-4.8 2.7-.1.2-.2 1.1-.4 1.8-1.5 1.3-2.9 2.6-4.3 3.8-.8.4-1.7.8-2.5 1.2-2.5 1.1-3 2.6-4.4 3.4-1.3.7-1 2-1.9 2.8s-1.2 1.8-1.2 1.8c-1.5 1.4-3 2.8-4.3 4.1l-5.3 4.2-1.9 2.8-3.5 3.8c-4.2 4.4-6.4 7-6.4 7l7.5-5.3 2-2.9c.1 0 .1-.1.2-.1l5-1.6 2.7-3.5 4.3-3.2.6-1.8c.4-.3.8-.6 1.1-.9l2.7-.1 2-3.4c2.9-2.2 5.9-4.3 8.9-6.5l3.2-1.4 8-6.6 2.7-.4 3.1-1.8 1-1.6s1.7-1.5 2.8-2.8c2.5-1.7 5.1-3.4 7.7-5.1l1.7.4 13.5-7.2 7.1-6.7 8.6-4.9-.3-1.1c11.7-7.3 23.5-14.3 35-21l12.5-4.4-7.3 1.4c2.7-1.5 5.3-3.1 7.9-4.6l4.5.2 2.5-4.2c5.5-3.2 11-6.2 16.2-9.2l8.1-3.8s1.4-1 2.5-2.1c5.2-2.9 10.2-5.6 14.9-8.2l3.8-.6 9.9-4.5 3.4-4.3c13.1-6.9 21-11 21-11"/><path d="m250.4 33.4c-4.5 1-8.9 2-13.3 3.1-.1 0-.1 0-.1 0-.9.2-1.6.4-2.5.7-.3.1-.5.1-.8.2-.1 0-.2.1-.3.1-1.5.4-2.2.6-3.2.9-.9.3-4.2-.8-4.2-.8l-1.5 2.4-.2.1c-1.4.4-2.9.9-4.3 1.3l-.3.1-4.8.9-3 1.7c-1.5.5-3 1-4.5 1.6-.5.2-1.1.4-1.8.6-.2.1-.5.2-.7.3-.8.3-1.4.5-1.8.7-.1 0-.2.1-.3.1h-.1s-6 1.4-7.2 1.9-2.9 1.3-4.1 1.7c-1.1.4-2.2 1.8-2.2 1.8h-.1c-1.6.7-3.2 1.4-4.8 2.1l-.2.1s0 0-.1 0c-3.3 1.5-6.6 3-9.9 4.6-.5-.2-.8-.4-.8-.4s-4.1 1.3-8.1 4c-1.2.8-2.8 1.9-4.3 3.1-2.9 1.5-5.8 3.1-8.7 4.7l-.9-.4s-1.2.7-2.6 1.5-4.9 3.7-7 4c-.9.1-2.3 1-3.7 1.8l5.7-6.8c-6 3-11.5 8.5-14.8 12.1-1 .6-2.1 1.2-3.6 1.8-4.8 1.9.6.7-2.5 1.5-3.1.7-1.4 2.4-2.9 4.3-1.5 1-2.9 2-4.3 3-1.8 1.2-5.6 1.6-5.6 1.6l-.2 1.2s-3.7 4-4.7 4.7c-.2.2-.5.4-.8.6-2.9 2.1-5.7 4.2-8.3 6.3-1.1.8-1.9 1.5-2.7 2.1-.4.3-.7.6-1.1.9-.1.1-.1.1-.2.2s-.2.1-.3.2c0 0-.1.1-.1.1-.2.1-.4.3-.6.5-1.4 1.1-2.8 2.2-4.2 3.4-.8.6-5.2 1.5-6.4 3.9 0 0-4.9 5.6-6.3 6.9-1.4 1.2-7.9 4.5-7.9 4.5l2.3.4c-2.8 2.5-5.3 4.9-7.5 7-7.4 7.1-11.4 11.5-11.4 11.5l3.9-2 2.1-2.6c.5-.4.9-.7 1.4-1.1.1 0 3-1.7 3.3-2.5 3.6-2.7 7.3-5.4 11-8l1.6-.5-.6 2.1 3.1-4.2 3.2-2.6c3.5-2.4 7-4.8 10.5-7.1l1.8.2 2.4-3.1c4.9-3.2 9.8-6.4 14.7-9.5l1.1.2 9.2-4.3s1.3-1.9 1.9-3.5c11.5-7 22.8-13.6 33.8-19.7l2.4 3.7 1.8-5c2.4-1.4 6.1-3.6 6.1-3.6l9.8-4.9 27.9-9.8-18.2 3.9c4.9-2.6 9.6-5 14.2-7.3 1.5-.2 4-.6 4-.6l6.9-3.3 6.5-4.8c2.8-1.4 5.5-2.7 8-3.9l4.9-1.9s.5-.5 1.2-1c9.1-4.3 15.7-7.3 18.9-8.7z"/><path d="m60.7 72.1 1.5-.2 2.2-1.5 1.7-1.5 2.7-1.5 1.9-.7 3-1.6 2.2-2.4c.8-.4 1.5-.9 2.3-1.3h.6l4.1-.8 3.3-1.6 3.4-3.8 1.7-.8s1.3.4 1.4.4 4.2-2.1 4.2-2.1l3.1-1.5 3.7-2.4 2.7-2.1 3.3-1.7 5.6-2 3.2-.2 2.9-1.9 2.2-2.1 3-.7 5.3-3.4s5.5-1.3 5.6-1.7c0-.4 2.2-2.2 2.2-2.2l4.7-2.1 2.6-1.7c-1.3.2-2.6.5-3.8.8-3.2.7-6.5 1.5-9.6 2.4l-2.6.3s-3.9 1.8-4.8 2.1c-2 .7-3.9 1.4-5.9 2.2-.3 0-.6 0-.9 0-1 .1-1.4.9-2.1.6-.6-.3-2.3.7-3 .9-.4.1.2.4.7.7-1.6.7-3.2 1.4-4.7 2.2-.7-.3-1.4-.8-1.9-.8-.8 0-1 1-1.2 1.4-.1.5-.4 1-1.3 1.5-.1.1-.2.1-.3.2-1.1.5-2.1 1.1-3.2 1.6s0 0-.1 0-.1.1-.2.1c-.3.1-.5.3-.8.4-.1 0-.1.1-.2.1-.1.1-.2.1-.4.2-.4.2-.8.4-1.1.6 0 0-.1 0-.1.1-1 .5-.9-.3-1.2.3-.2.6-1.3 1.1-2 .9-.5-.1-.4.3-.3.8-1.2.7-2.3 1.4-3.5 2l-4.1 1-.5 1.8c-1.3.8-2.5 1.6-3.8 2.4l-3.8 1.8-.3.9s-5.1 1.2-5.4 1.6c-.2.3 1.4.3 2.4.4-1 .7-1.9 1.4-2.9 2.1l-.5-.1s-.2.4-.5.9c-2.1 1.6-4.1 3.1-5.8 4.4l-2.2.9-7.6 7.4 2-.4z"/></svg>